<svg width="24" height="24" viewBox="0 0 24 24" fill="none" xmlns="http://www.w3.org/2000/svg">
<path fill-rule="evenodd" clip-rule="evenodd" d="M10.488 3.788C11.4724 2.8034 12.8077 2.25016 14.2 2.25H16.9C17.0989 2.25 17.2897 2.32902 17.4303 2.46967C17.571 2.61032 17.65 2.80109 17.65 3V6.6C17.65 6.79891 17.571 6.98968 17.4303 7.13033C17.2897 7.27098 17.0989 7.35 16.9 7.35H14.2C14.1803 7.35 14.1608 7.35388 14.1426 7.36142C14.1244 7.36896 14.1079 7.38 14.0939 7.39393C14.08 7.40786 14.069 7.4244 14.0614 7.4426C14.0539 7.4608 14.05 7.4803 14.05 7.5V9.45H16.9C17.014 9.44994 17.1266 9.47587 17.229 9.52583C17.3315 9.57579 17.4213 9.64846 17.4915 9.73832C17.5617 9.82817 17.6104 9.93285 17.6341 10.0444C17.6578 10.1559 17.6557 10.2714 17.628 10.382L16.728 13.982C16.6874 14.1443 16.5937 14.2884 16.4618 14.3913C16.3299 14.4942 16.1673 14.5501 16 14.55H14.05V21C14.05 21.1989 13.971 21.3897 13.8303 21.5303C13.6897 21.671 13.4989 21.75 13.3 21.75H9.7C9.50109 21.75 9.31032 21.671 9.16967 21.5303C9.02902 21.3897 8.95 21.1989 8.95 21V14.55H7C6.80109 14.55 6.61032 14.471 6.46967 14.3303C6.32902 14.1897 6.25 13.9989 6.25 13.8V10.2C6.25 10.1015 6.2694 10.004 6.30709 9.91299C6.34478 9.82199 6.40003 9.73931 6.46967 9.66967C6.53931 9.60003 6.62199 9.54478 6.71299 9.50709C6.80398 9.4694 6.90151 9.45 7 9.45H8.95V7.5C8.95016 6.10768 9.5034 4.77244 10.488 3.788ZM14.2 3.75C13.2054 3.75 12.2516 4.14509 11.5483 4.84835C10.8451 5.55161 10.45 6.50544 10.45 7.5V10.2C10.45 10.3989 10.371 10.5897 10.2303 10.7303C10.0897 10.871 9.89891 10.95 9.7 10.95H7.75V13.05H9.7C9.89891 13.05 10.0897 13.129 10.2303 13.2697C10.371 13.4103 10.45 13.6011 10.45 13.8V20.25H12.55V13.8C12.55 13.6011 12.629 13.4103 12.7697 13.2697C12.9103 13.129 13.1011 13.05 13.3 13.05H15.414L15.939 10.95H13.3C13.1011 10.95 12.9103 10.871 12.7697 10.7303C12.629 10.5897 12.55 10.3989 12.55 10.2V7.5C12.55 7.06239 12.7238 6.64271 13.0333 6.33327C13.3427 6.02384 13.7624 5.85 14.2 5.85H16.15V3.75H14.2Z" fill="#292D32"/>
</svg>
