<svg width="24" height="24" viewBox="0 0 24 24" fill="none" xmlns="http://www.w3.org/2000/svg">
<path d="M13.25 6.125V9.75H16.5C16.75 9.75 16.875 10 16.875 10.25L16.375 12.625C16.375 12.75 16.125 12.875 16 12.875H13.25V22H9.5V13H7.375C7.125 13 7 12.875 7 12.625V10.25C7 10 7.125 9.875 7.375 9.875H9.5V5.75C9.5 3.625 11.125 2 13.25 2H16.625C16.875 2 17 2.125 17 2.375V5.375C17 5.625 16.875 5.75 16.625 5.75H13.625C13.375 5.75 13.25 5.875 13.25 6.125Z" stroke="#17191C" stroke-width="1.5" stroke-miterlimit="10" stroke-linecap="round"/>
</svg>
