<svg width="1097" height="252" viewBox="0 0 1097 252" fill="none" xmlns="http://www.w3.org/2000/svg">
<path d="M266.998 6L182.32 126H6L90.6777 6H266.998Z" fill="#FF1545"/>
<path d="M330.68 246L246.001 126H6L90.6787 246H330.68Z" fill="#E9335A"/>
<path d="M1086.06 92.7348V113.527H1030.84V136.852H1076.81V157.412H1030.84V181.207H1090.68V201.993H1004.51V92.7348H1086.06Z" fill="#2B2A2A"/>
<path d="M891.258 92.7348L919.581 155.962L946.931 92.7348H977.194L982.512 201.993H955.253L954.112 121.216L925.215 196.45H911.589L880.133 123.82L880.629 201.993H855.677L860.763 92.7348H891.258Z" fill="#2B2A2A"/>
<path d="M804.849 201.997V92.7368H832.571V201.997H804.849Z" fill="#2B2A2A"/>
<path d="M670.766 50.0034L752.995 156.851L750.236 50.0034H777.032V201.999H753.24L665.983 88.4423L668.916 201.999H642.114V50.0034H670.766Z" fill="#2B2A2A"/>
<path d="M563.429 203.614C552.494 203.614 542.637 201.15 533.858 196.222C525.234 191.294 518.457 184.673 513.529 176.357C508.6 168.041 506.136 158.801 506.136 148.637C506.136 138.166 508.677 128.618 513.76 119.994C518.842 111.216 525.85 104.21 534.782 98.9737C543.869 93.7378 554.188 91.1199 565.739 91.1199C576.674 91.1199 586.454 93.5838 595.078 98.5117C603.857 103.286 610.711 109.907 615.639 118.377C620.721 126.693 623.263 136.164 623.263 146.789C623.263 157.877 620.567 167.733 615.177 176.357C609.787 184.827 602.548 191.525 593.461 196.453C584.375 201.227 574.364 203.614 563.429 203.614ZM566.201 183.518C571.899 183.518 576.828 182.132 580.986 179.36C585.145 176.588 588.379 172.661 590.689 167.579C592.999 162.497 594.154 156.414 594.154 149.33C594.154 141.631 592.768 134.932 589.996 129.234C587.378 123.536 583.758 119.147 579.138 116.067C574.518 112.833 569.204 111.216 563.198 111.216C557.807 111.216 552.956 112.602 548.644 115.374C544.485 118.146 541.174 122.15 538.71 127.386C536.4 132.468 535.245 138.628 535.245 145.865C535.245 153.411 536.554 160.033 539.172 165.731C541.944 171.429 545.64 175.818 550.261 178.898C554.881 181.978 560.195 183.518 566.201 183.518Z" fill="#2B2A2A"/>
<path d="M449.688 205C433.979 205 420.195 201.843 408.336 195.529C396.477 189.061 387.236 180.13 380.613 168.734C373.991 157.184 370.68 143.864 370.68 128.772C370.68 115.836 372.836 104.364 377.148 94.3538C381.615 84.1901 387.698 75.6433 395.399 68.7134C403.099 61.6296 411.955 56.2398 421.966 52.5439C431.977 48.848 442.681 47 454.077 47C462.24 47 470.48 48.155 478.796 50.4649C487.113 52.6209 495.045 55.9318 502.591 60.3977L489.192 86.269C482.262 80.2631 475.408 75.8743 468.632 73.1023C462.009 70.1764 455.079 68.7134 447.84 68.7134C438.445 68.7134 430.283 70.9464 423.352 75.4123C416.575 79.7242 411.339 86.038 407.643 94.3538C404.1 102.516 402.329 112.294 402.329 123.69C402.329 135.856 404.639 146.481 409.26 155.567C413.88 164.499 419.964 171.506 427.51 176.588C435.211 181.516 443.528 183.98 452.46 183.98C460.469 183.98 467.862 182.363 474.638 179.129C481.415 175.895 487.113 171.66 491.734 166.424L503.978 189.523C495.969 194.759 487.344 198.686 478.103 201.304C469.017 203.768 459.545 205 449.688 205Z" fill="#2B2A2A"/>
</svg>
